<svg width="19" height="19" viewBox="0 0 19 19" fill="none" xmlns="http://www.w3.org/2000/svg">
<path d="M17.3759 9.67444C17.3759 9.02695 17.3223 8.55445 17.2063 8.06445H9.66162V10.9869H14.0902C14.0009 11.7132 13.5188 12.8069 12.4473 13.5419L12.4323 13.6397L14.8178 15.4508L14.983 15.467C16.5009 14.0932 17.3759 12.0719 17.3759 9.67444Z" fill="#4285F4"/>
<path d="M9.66098 17.3752C11.8306 17.3752 13.652 16.6751 14.9824 15.4677L12.4467 13.5426C11.7681 14.0064 10.8574 14.3301 9.66098 14.3301C7.53601 14.3301 5.73246 12.9564 5.08954 11.0576L4.9953 11.0655L2.51486 12.9467L2.48242 13.0351C3.80383 15.6076 6.51811 17.3752 9.66098 17.3752Z" fill="#34A853"/>
<path d="M5.09022 11.0576C4.92059 10.5676 4.82241 10.0426 4.82241 9.5001C4.82241 8.95756 4.92059 8.43258 5.0813 7.94259L5.07681 7.83823L2.56527 5.92676L2.4831 5.96506C1.93848 7.03258 1.62598 8.23135 1.62598 9.5001C1.62598 10.7688 1.93848 11.9676 2.4831 13.0351L5.09022 11.0576Z" fill="#FBBC05"/>
<path d="M9.66103 4.66998C11.1699 4.66998 12.1878 5.30873 12.7682 5.84251L15.036 3.6725C13.6432 2.40375 11.8306 1.625 9.66103 1.625C6.51814 1.625 3.80384 3.39249 2.48242 5.96497L5.08063 7.94249C5.73248 6.04375 7.53604 4.66998 9.66103 4.66998Z" fill="#EB4335"/>
</svg>
