<svg width="239" height="160" viewBox="0 0 239 160" fill="none" xmlns="http://www.w3.org/2000/svg">
<path d="M70.0681 38.9613L34.3135 62.8789L69.5316 115.527L105.286 91.6093L70.0681 38.9613Z" fill="#B5B5B5"/>
<path d="M86.8088 89.1187L86.4041 91.6298L68.6289 89.0677L69.0336 86.5566L86.8088 89.1187Z" fill="#9A9A9A"/>
<path d="M77.8581 80.1602L80.4074 80.5266L77.5808 98.0278L75.0283 97.6581L77.8581 80.1602Z" fill="#9A9A9A"/>
<path d="M61.5003 57.9165C61.5258 57.9515 57.944 60.3957 53.4986 63.3657C49.0532 66.3356 45.4299 68.7193 45.4044 68.681C45.3789 68.6428 48.9608 66.2018 53.4062 63.2286C57.8516 60.2555 61.4589 57.8782 61.5003 57.9165Z" fill="#9A9A9A"/>
<path d="M74.6365 54.6175C74.662 54.6557 68.7029 58.6837 61.329 63.6166C53.955 68.5496 47.9449 72.517 47.9258 72.4819C47.9067 72.4469 53.853 68.4125 61.2365 63.4796C68.62 58.5466 74.611 54.5792 74.6365 54.6175Z" fill="#9A9A9A"/>
<path d="M77.2712 58.555C77.2967 58.5932 71.3377 62.6243 63.9637 67.5573C56.5898 72.4903 50.5797 76.4577 50.5606 76.4194C50.5415 76.3812 56.4942 72.3532 63.8713 67.4171C71.2484 62.4809 77.2457 58.5167 77.2712 58.555Z" fill="#9A9A9A"/>
<path d="M79.9073 62.4964C79.9328 62.5346 73.9738 66.5657 66.5998 71.4955C59.2259 76.4253 53.2158 80.3991 53.2158 80.3608C53.2158 80.3226 59.1462 76.2914 66.5233 71.3585C73.9005 66.4255 79.8818 62.4581 79.9073 62.4964Z" fill="#9A9A9A"/>
<path d="M82.5317 66.4378C82.5572 66.476 76.5981 70.504 69.2242 75.4369C61.8502 80.3699 55.8402 84.3373 55.8243 84.299C55.8083 84.2608 61.7642 80.2329 69.1477 75.2999C76.5312 70.3669 82.5317 66.3995 82.5317 66.4378Z" fill="#9A9A9A"/>
<path d="M189.627 74.2392L159.599 94.3262L189.175 138.541L219.204 118.454L189.627 74.2392Z" fill="#B5B5B5"/>
<path d="M203.689 116.37L203.348 118.479L188.419 116.328L188.763 114.219L203.689 116.37Z" fill="#9A9A9A"/>
<path d="M196.173 108.846L198.315 109.155L195.941 123.852L193.796 123.543L196.173 108.846Z" fill="#9A9A9A"/>
<path d="M182.423 90.1847C182.448 90.2229 179.443 92.2783 175.708 94.7735C171.973 97.2686 168.927 99.2635 168.902 99.2348C168.876 99.2061 171.884 97.1443 175.616 94.646C179.347 92.1476 182.397 90.1305 182.423 90.1847Z" fill="#9A9A9A"/>
<path d="M193.465 87.3949C193.49 87.4331 188.491 90.8237 182.312 94.9632C176.133 99.1027 171.075 102.436 171.05 102.398C171.024 102.359 176.024 98.9688 182.203 94.8262C188.382 90.6835 193.43 87.3566 193.465 87.3949Z" fill="#9A9A9A"/>
<path d="M195.679 90.7014C195.704 90.7397 190.704 94.1303 184.525 98.273C178.347 102.416 173.289 105.743 173.264 105.704C173.238 105.666 178.222 102.291 184.417 98.1487C190.612 94.006 195.66 90.6664 195.679 90.7014Z" fill="#9A9A9A"/>
<path d="M197.892 94.008C197.917 94.0463 192.914 97.4369 186.738 101.58C180.563 105.722 175.502 109.049 175.477 109.011C175.451 108.973 180.451 105.585 186.63 101.439C192.809 97.2935 197.869 93.9762 197.892 94.008Z" fill="#9A9A9A"/>
<path d="M200.119 97.3226C200.145 97.3608 195.145 100.748 188.966 104.891C182.787 109.034 177.73 112.36 177.704 112.325C177.679 112.29 182.679 108.897 188.858 104.754C195.036 100.611 200.078 97.2844 200.119 97.3226Z" fill="#9A9A9A"/>
<path d="M142.12 40.8971L109.355 23.373L83.5518 71.6179L116.316 89.1419L142.12 40.8971Z" fill="#B5B5B5"/>
<path d="M110.71 74.0475L108.633 74.7582L103.355 60.1728L105.436 59.459L110.71 74.0475Z" fill="#9A9A9A"/>
<path d="M113.897 63.582L114.655 65.6757L100.169 70.6373L99.4102 68.5437L113.897 63.582Z" fill="#9A9A9A"/>
<path d="M124.19 42.0638C124.164 42.1116 120.844 40.3844 116.768 38.2079C112.692 36.0314 109.413 34.2245 109.439 34.1767C109.464 34.1289 112.788 35.8561 116.864 38.0326C120.939 40.2091 124.215 42.0128 124.19 42.0638Z" fill="#9A9A9A"/>
<path d="M132.055 50.7418C132.029 50.7896 126.529 47.8961 119.77 44.2824C113.011 40.6688 107.556 37.6988 107.581 37.651C107.607 37.6032 113.104 40.4935 119.863 44.1103C126.621 47.7272 132.08 50.694 132.055 50.7418Z" fill="#9A9A9A"/>
<path d="M130.121 54.3512C130.096 54.399 124.595 51.5087 117.837 47.8918C111.078 44.2749 105.622 41.3081 105.648 41.2603C105.673 41.2125 111.17 44.106 117.929 47.7197C124.688 51.3334 130.147 54.3034 130.121 54.3512Z" fill="#9A9A9A"/>
<path d="M128.191 57.9615C128.166 58.0093 122.666 55.119 115.907 51.5053C109.148 47.8917 103.692 44.9312 103.718 44.8739C103.743 44.8165 109.24 47.7164 115.999 51.3301C122.758 54.9437 128.217 57.9137 128.191 57.9615Z" fill="#9A9A9A"/>
<path d="M126.261 61.5726C126.235 61.6204 120.735 58.7301 113.976 55.1164C107.217 51.5027 101.759 48.5328 101.787 48.485C101.816 48.4372 107.31 51.3275 114.069 54.9411C120.828 58.5548 126.286 61.5248 126.261 61.5726Z" fill="#9A9A9A"/>
<path opacity="0.2" d="M126.431 0H125.608V14.015H126.431V0Z" fill="black"/>
<path d="M106.828 30.9714H145.215C145.215 30.9714 141.671 14.0215 125.731 14.0215C111.554 14.0215 106.828 30.9714 106.828 30.9714Z" fill="#407BFF"/>
<path d="M126.433 0H125.61V14.015H126.433V0Z" fill="#407BFF"/>
<path d="M211.49 140.159C211.49 140.204 170.302 140.242 119.503 140.242C68.7048 140.242 27.5107 140.213 27.5107 140.159C27.5107 140.105 68.692 140.076 119.503 140.076C170.315 140.076 211.49 140.111 211.49 140.159Z" fill="#263238"/>
<path d="M37.6967 120.2C38.2354 120.239 38.7609 120.386 39.2416 120.633C39.7223 120.879 40.1484 121.22 40.4946 121.634C41.1828 122.469 41.6702 123.45 41.919 124.502C42.4576 126.516 42.1261 128.897 41.5525 130.901C39.3729 130.121 38.0249 127.794 37.4099 126.571C36.4539 124.639 35.8835 120.561 37.6871 120.197" fill="#407BFF"/>
<path d="M44.6887 133.347C44.3614 132.84 44.1742 132.255 44.1463 131.651C44.1183 131.048 44.2505 130.448 44.5294 129.912C44.817 129.381 45.2075 128.913 45.6781 128.535C46.1486 128.157 46.6898 127.877 47.2699 127.71C47.8021 127.544 48.4203 127.478 48.8824 127.787C49.0907 127.944 49.2529 128.155 49.3521 128.396C49.4513 128.638 49.4839 128.902 49.4464 129.16C49.3628 129.678 49.1428 130.164 48.8091 130.569C47.7479 132.006 46.4605 133.201 44.6664 133.347" fill="#407BFF"/>
<path d="M44.9319 140.08C44.8846 139.945 44.8515 139.805 44.8331 139.663C44.7757 139.363 44.6992 138.978 44.6068 138.515C44.3208 137.25 44.2412 135.947 44.371 134.656C44.5213 133.36 45.0152 132.126 45.8018 131.084C46.0422 130.773 46.3193 130.491 46.6272 130.246C46.7108 130.18 46.7981 130.118 46.8885 130.061C46.9172 130.037 46.9495 130.018 46.9841 130.004C46.581 130.348 46.2128 130.731 45.8847 131.148C45.1396 132.191 44.6704 133.406 44.5208 134.679C44.3168 136.164 44.5686 137.524 44.7152 138.503C44.7917 138.99 44.8554 139.385 44.8904 139.66C44.9155 139.798 44.9294 139.939 44.9319 140.08Z" fill="#263238"/>
<path d="M38.3955 123.271C38.4319 123.322 38.4619 123.376 38.4847 123.434C38.5421 123.561 38.6186 123.721 38.7078 123.922C38.9022 124.345 39.1731 124.96 39.5013 125.722C40.1577 127.248 41.0373 129.371 41.955 131.735C42.8728 134.1 43.6535 136.257 44.1857 137.828C44.4597 138.612 44.6732 139.249 44.823 139.692C44.8899 139.903 44.9409 140.072 44.9823 140.202C45.0051 140.261 45.0211 140.322 45.0301 140.384C44.9978 140.33 44.9722 140.272 44.9537 140.212C44.9059 140.084 44.8453 139.919 44.7657 139.712L44.0933 137.863C43.5229 136.305 42.7262 134.151 41.8116 131.789C40.897 129.428 40.0303 127.299 39.3993 125.763C39.0806 125.008 38.8353 124.393 38.6536 123.944C38.5708 123.74 38.5039 123.577 38.4529 123.447C38.4289 123.39 38.4097 123.331 38.3955 123.271Z" fill="#263238"/>
<path d="M42.3412 135.624C41.6855 134.533 40.7794 133.613 39.6977 132.941C38.6161 132.268 37.39 131.863 36.1208 131.759C35.4835 131.714 34.6996 131.823 34.4128 132.396C34.126 132.97 34.5084 133.671 34.9482 134.136C35.8825 135.114 37.0853 135.793 38.4049 136.088C39.7246 136.382 41.102 136.28 42.3635 135.793" fill="#407BFF"/>
<path d="M37.1035 133.487C37.2386 133.48 37.3741 133.486 37.5082 133.503C37.6653 133.512 37.8218 133.53 37.9767 133.557C38.1583 133.592 38.3718 133.611 38.5949 133.675C38.8442 133.728 39.0901 133.796 39.331 133.879C39.6102 133.969 39.8836 134.075 40.15 134.198C40.7626 134.472 41.342 134.815 41.8772 135.221C42.4061 135.636 42.8851 136.11 43.3048 136.636C43.486 136.864 43.6531 137.104 43.8051 137.353C43.9425 137.568 44.068 137.79 44.1811 138.019C44.2769 138.205 44.362 138.396 44.436 138.592C44.4999 138.737 44.5542 138.886 44.5986 139.038C44.6458 139.165 44.681 139.297 44.7037 139.43C44.6687 139.43 44.5157 138.882 44.0855 138.066C43.9684 137.847 43.8397 137.635 43.6999 137.429C43.5446 137.188 43.3766 136.955 43.1964 136.731C42.3629 135.701 41.3 134.881 40.0926 134.335C39.8154 134.214 39.5509 134.099 39.2928 134.016C39.0558 133.93 38.8143 133.856 38.5694 133.796C37.6771 133.551 37.1003 133.522 37.1035 133.487Z" fill="#263238"/>
<path d="M181.756 33.614C180.819 33.8275 180.363 34.9078 180.274 35.8638C180.185 36.8198 180.306 37.8331 179.904 38.7063C179.452 39.6878 178.371 40.4143 178.336 41.4946C178.314 42.1543 178.706 42.7693 178.687 43.4353C178.655 44.5188 177.552 45.3473 177.492 46.418C177.45 47.1988 177.97 47.9444 177.846 48.7156C177.75 49.3147 177.282 49.7863 177.084 50.3599C176.692 51.5071 177.479 52.7659 178.502 53.4096C179.075 53.7699 179.72 54.0007 180.391 54.0859C181.063 54.1711 181.745 54.1087 182.39 53.9029C183.035 53.6971 183.627 53.353 184.125 52.8946C184.623 52.4363 185.015 51.8746 185.274 51.249C185.841 49.8724 185.717 48.3205 185.592 46.8387C185.21 42.2159 184.925 37.5867 184.738 32.9512" fill="#263238"/>
<path d="M179.033 49.9237C179.226 49.8039 179.376 49.6267 179.463 49.417C179.555 49.1676 179.592 48.9013 179.572 48.6363C179.537 48.2849 179.459 47.9392 179.339 47.607C179.187 47.1894 179.13 46.7429 179.173 46.3004C179.253 45.8033 179.61 45.3954 179.932 44.9939C180.105 44.7974 180.25 44.5775 180.362 44.3406C180.474 44.1011 180.493 43.8281 180.413 43.5758C180.247 43.0564 179.737 42.674 179.505 42.0717C179.395 41.7736 179.378 41.4495 179.454 41.1412C179.526 40.8521 179.633 40.5729 179.773 40.3095C180.042 39.8352 180.255 39.3316 180.41 38.8086C180.633 37.7984 180.528 36.8328 180.681 36.0394C180.766 35.4039 181.048 34.8109 181.487 34.3441C181.611 34.2183 181.753 34.111 181.908 34.0254C181.961 33.9976 182.018 33.9772 182.076 33.9648C181.877 34.0748 181.693 34.2121 181.532 34.3727C181.124 34.8443 180.868 35.427 180.795 36.0457C180.74 36.4684 180.71 36.8941 180.706 37.3204C180.705 37.8221 180.656 38.3226 180.56 38.815C180.408 39.35 180.194 39.8654 179.922 40.3509C179.683 40.8512 179.463 41.4376 179.674 41.9857C179.884 42.5338 180.391 42.913 180.585 43.4993C180.673 43.789 180.651 44.1008 180.525 44.3757C180.4 44.6363 180.239 44.8778 180.047 45.0927C179.728 45.4942 179.381 45.8766 179.304 46.3227C179.259 46.7459 179.309 47.1737 179.451 47.5751C179.564 47.9176 179.635 48.273 179.661 48.6331C179.677 48.9104 179.628 49.1875 179.518 49.4425C179.449 49.6023 179.339 49.741 179.199 49.844C179.149 49.8805 179.093 49.9075 179.033 49.9237Z" fill="#455A64"/>
<path d="M176.542 57.4785L173.674 65.7638L161.679 66.4012L159.678 70.8625L172.201 72.1372C172.793 72.3801 173.428 72.5005 174.067 72.4912C174.707 72.4819 175.338 72.3431 175.922 72.0831C176.507 71.823 177.032 71.4473 177.467 70.9784C177.902 70.5096 178.238 69.9574 178.454 69.3552L181.796 60.0247L176.542 57.4785Z" fill="#B78876"/>
<path d="M201.337 135.658C201.337 135.658 192.549 107.737 192.361 106.832C192.192 106.01 195.547 85.9177 195.974 80.7012L184.097 81.1441V81.262L179.05 81.5425L183.568 138.622H189.034L188.492 119.677C191.863 128.724 196.694 137.946 196.694 137.946L201.337 135.658Z" fill="#B78876"/>
<path d="M188.714 126.473C188.714 126.301 188.647 120.125 188.647 120.125C188.58 120.495 186.554 114.765 186.601 114.418C186.627 114.236 188.714 126.473 188.714 126.473Z" fill="#A36957"/>
<path d="M186.371 111.703C186.342 111.817 186.331 111.934 186.335 112.05C186.318 112.369 186.318 112.688 186.335 113.006C186.335 113.207 186.364 113.424 186.39 113.66C186.415 113.896 186.45 114.144 186.504 114.402C186.618 114.966 186.768 115.522 186.954 116.066C187.349 117.222 187.789 118.233 188.098 118.966C188.244 119.284 188.372 119.587 188.48 119.829C188.519 119.942 188.573 120.049 188.639 120.148C188.622 120.038 188.59 119.93 188.544 119.829C188.471 119.619 188.359 119.316 188.225 118.943C187.945 118.198 187.524 117.178 187.132 116.034C186.947 115.498 186.795 114.951 186.676 114.396C186.619 114.141 186.581 113.896 186.546 113.666C186.511 113.437 186.485 113.22 186.469 113.029C186.431 112.634 186.415 112.315 186.406 112.092C186.412 111.961 186.4 111.831 186.371 111.703Z" fill="#A36957"/>
<path d="M183.467 138.911V138.398L189.066 138.152L189.082 140.271L188.738 140.294C187.199 140.383 180.914 140.644 179.888 140.335C178.738 139.991 183.467 138.911 183.467 138.911Z" fill="#455A64"/>
<path d="M189.153 140.145C189.121 140.147 189.089 140.147 189.057 140.145L188.783 140.164L187.77 140.208C186.916 140.243 185.734 140.275 184.43 140.282C183.127 140.288 181.941 140.266 181.084 140.24L180.074 140.199H179.797H179.701C179.733 140.196 179.765 140.196 179.797 140.199H180.074L181.087 140.218C181.941 140.218 183.124 140.243 184.427 140.237C185.73 140.231 186.916 140.208 187.77 140.186L188.783 140.16H189.153V140.145Z" fill="#263238"/>
<path d="M181.64 140.322C181.594 140.155 181.53 139.994 181.449 139.841C181.348 139.699 181.232 139.57 181.102 139.455C181.276 139.517 181.42 139.642 181.506 139.806C181.612 139.956 181.659 140.139 181.64 140.322Z" fill="#263238"/>
<path d="M183.291 139.484C183.291 139.484 183.199 139.398 183.116 139.271C183.033 139.143 182.982 139.032 182.998 139.022C183.014 139.013 183.09 139.105 183.173 139.232C183.256 139.36 183.307 139.475 183.291 139.484Z" fill="#263238"/>
<path d="M183.745 139.256C183.745 139.272 183.643 139.212 183.547 139.126C183.451 139.039 183.381 138.96 183.394 138.947C183.407 138.934 183.496 138.992 183.592 139.078C183.687 139.164 183.757 139.228 183.745 139.256Z" fill="#263238"/>
<path d="M184.028 138.716C183.934 138.751 183.834 138.764 183.734 138.754C183.637 138.767 183.537 138.758 183.444 138.726C183.537 138.692 183.636 138.678 183.734 138.687C183.833 138.674 183.933 138.684 184.028 138.716Z" fill="#263238"/>
<path d="M184.122 138.346C184.027 138.408 183.916 138.441 183.803 138.442C183.695 138.456 183.585 138.44 183.484 138.397C183.59 138.379 183.696 138.371 183.803 138.371C183.908 138.353 184.015 138.344 184.122 138.346Z" fill="#263238"/>
<path d="M183.102 138.997C182.984 139.019 182.861 139.019 182.742 138.997C182.614 138.982 182.487 138.954 182.363 138.914C182.287 138.893 182.213 138.863 182.143 138.825C182.101 138.8 182.069 138.76 182.054 138.714C182.048 138.687 182.05 138.659 182.06 138.634C182.069 138.608 182.086 138.586 182.108 138.57C182.196 138.527 182.293 138.505 182.391 138.504C182.489 138.503 182.586 138.524 182.675 138.565C182.764 138.606 182.843 138.667 182.906 138.742C182.969 138.817 183.014 138.905 183.039 139C183.045 139.032 183.045 139.064 183.039 139.096C183.003 138.981 182.947 138.873 182.873 138.777C182.788 138.682 182.678 138.613 182.554 138.58C182.413 138.534 182.26 138.546 182.127 138.612C182.073 138.653 182.096 138.72 182.156 138.758C182.221 138.793 182.289 138.822 182.36 138.844C182.48 138.884 182.602 138.915 182.726 138.937C182.965 138.988 183.102 138.988 183.102 138.997Z" fill="#263238"/>
<path d="M183.009 139.015C182.962 138.941 182.946 138.852 182.964 138.766C182.976 138.673 183.01 138.583 183.063 138.505C183.093 138.452 183.136 138.407 183.187 138.375C183.239 138.342 183.298 138.324 183.359 138.32C183.395 138.329 183.427 138.35 183.448 138.381C183.468 138.412 183.477 138.449 183.471 138.486C183.463 138.543 183.442 138.598 183.41 138.645C183.362 138.724 183.305 138.798 183.241 138.865C183.186 138.929 183.116 138.978 183.037 139.009C183.037 139.009 183.108 138.945 183.206 138.83C183.264 138.764 183.314 138.693 183.356 138.617C183.404 138.54 183.439 138.403 183.356 138.387C183.273 138.371 183.178 138.47 183.123 138.54C183.073 138.609 183.038 138.689 183.022 138.773C183.009 138.853 183.004 138.934 183.009 139.015Z" fill="#263238"/>
<path d="M189.036 138.622C189.036 138.622 188.876 138.622 188.624 138.638C188.297 138.677 187.986 138.808 187.729 139.015C187.472 139.221 187.277 139.496 187.168 139.808C187.085 140.047 187.079 140.209 187.066 140.206C187.053 140.203 187.066 140.165 187.066 140.094C187.074 139.992 187.094 139.89 187.124 139.792C187.225 139.466 187.42 139.176 187.684 138.96C187.952 138.748 188.277 138.62 188.618 138.594C188.724 138.581 188.831 138.581 188.937 138.594C188.971 138.599 189.004 138.608 189.036 138.622Z" fill="#263238"/>
<path d="M186.356 139.698C186.089 139.76 185.814 139.787 185.54 139.778C185.267 139.791 184.994 139.768 184.728 139.708C184.728 139.688 185.091 139.708 185.54 139.708C185.989 139.708 186.353 139.679 186.356 139.698Z" fill="#263238"/>
<path d="M187.445 139.689C187.445 139.689 187.416 139.765 187.378 139.848C187.339 139.931 187.32 140.007 187.301 140.004C187.282 140.001 187.272 139.918 187.317 139.819C187.362 139.72 187.432 139.673 187.445 139.689Z" fill="#263238"/>
<path d="M187.858 139.174C187.858 139.174 187.836 139.244 187.778 139.302C187.721 139.359 187.663 139.398 187.647 139.385C187.631 139.372 187.67 139.315 187.727 139.254C187.785 139.193 187.842 139.158 187.858 139.174Z" fill="#263238"/>
<path d="M188.443 138.94C188.443 138.959 188.367 138.959 188.284 138.988C188.201 139.016 188.144 139.061 188.128 139.048C188.112 139.035 188.16 138.959 188.262 138.924C188.364 138.889 188.45 138.921 188.443 138.94Z" fill="#263238"/>
<path d="M188.862 138.824C188.862 138.844 188.839 138.872 188.791 138.888C188.743 138.904 188.702 138.908 188.695 138.888C188.689 138.869 188.721 138.84 188.766 138.824C188.81 138.809 188.855 138.809 188.862 138.824Z" fill="#263238"/>
<path d="M196.583 138.416L196.373 137.948L201.379 135.434L202.262 137.346L201.943 137.508C200.576 138.219 194.952 141.029 193.887 141.17C192.711 141.338 196.583 138.416 196.583 138.416Z" fill="#455A64"/>
<path d="M202.279 137.209L202.196 137.26L201.951 137.387L201.046 137.846C200.281 138.226 199.217 138.739 198.028 139.28C196.839 139.822 195.75 140.284 194.959 140.612L194.019 140.992L193.764 141.09C193.735 141.104 193.704 141.114 193.672 141.119L193.758 141.078L194.01 140.966L194.94 140.568C195.727 140.23 196.811 139.758 197.999 139.217C199.188 138.675 200.256 138.171 201.027 137.802L201.938 137.365L202.19 137.247L202.279 137.209Z" fill="#263238"/>
<path d="M195.51 140.451C195.399 140.316 195.274 140.194 195.137 140.087C194.987 139.999 194.828 139.928 194.662 139.877C194.845 139.875 195.024 139.928 195.176 140.031C195.328 140.133 195.444 140.28 195.51 140.451Z" fill="#263238"/>
<path d="M196.658 139.009C196.658 139.009 196.537 138.971 196.409 138.888C196.282 138.805 196.189 138.726 196.199 138.71C196.208 138.694 196.32 138.748 196.447 138.831C196.575 138.914 196.667 138.993 196.658 139.009Z" fill="#263238"/>
<path d="M196.972 138.622C196.972 138.638 196.863 138.622 196.739 138.584C196.615 138.546 196.522 138.498 196.525 138.479C196.606 138.471 196.687 138.484 196.761 138.517C196.882 138.546 196.978 138.59 196.972 138.622Z" fill="#263238"/>
<path d="M197.016 138.01C197.016 138.029 196.911 138.096 196.765 138.166C196.68 138.217 196.585 138.248 196.487 138.258C196.487 138.239 196.592 138.172 196.736 138.102C196.822 138.052 196.917 138.02 197.016 138.01Z" fill="#263238"/>
<path d="M196.952 137.633C196.952 137.633 196.859 137.76 196.694 137.853C196.6 137.916 196.489 137.95 196.375 137.948C196.466 137.887 196.563 137.834 196.665 137.792C196.821 137.706 196.936 137.617 196.952 137.633Z" fill="#263238"/>
<path d="M196.3 138.647C196.203 138.714 196.095 138.763 195.981 138.794C195.856 138.83 195.728 138.857 195.599 138.873C195.521 138.883 195.441 138.883 195.363 138.873C195.314 138.87 195.268 138.847 195.236 138.81C195.221 138.787 195.213 138.76 195.213 138.733C195.213 138.706 195.221 138.679 195.236 138.657C195.332 138.539 195.467 138.459 195.616 138.43C195.766 138.401 195.921 138.425 196.055 138.497C196.134 138.539 196.203 138.596 196.258 138.666C196.297 138.717 196.313 138.749 196.309 138.752C196.231 138.665 196.137 138.592 196.032 138.539C195.92 138.486 195.795 138.467 195.672 138.484C195.599 138.492 195.528 138.514 195.464 138.549C195.399 138.584 195.342 138.631 195.296 138.688C195.261 138.749 195.296 138.8 195.382 138.81C195.455 138.816 195.529 138.816 195.602 138.81C195.729 138.797 195.855 138.774 195.978 138.743C196.16 138.692 196.3 138.637 196.3 138.647Z" fill="#263238"/>
<path d="M196.21 138.7C196.139 138.65 196.089 138.575 196.07 138.49C196.042 138.4 196.036 138.305 196.051 138.213C196.057 138.151 196.078 138.093 196.112 138.042C196.147 137.991 196.194 137.95 196.249 137.923C196.328 137.897 196.513 138.06 196.526 138.12C196.539 138.181 196.434 138.149 196.427 138.2C196.417 138.29 196.395 138.379 196.363 138.464C196.34 138.546 196.296 138.621 196.236 138.681C196.236 138.681 196.274 138.595 196.319 138.452C196.342 138.367 196.358 138.281 196.367 138.193C196.367 138.104 196.367 137.967 196.265 137.99C196.163 138.012 196.134 138.136 196.112 138.225C196.092 138.308 196.092 138.394 196.112 138.477C196.138 138.554 196.171 138.629 196.21 138.7Z" fill="#263238"/>
<path d="M201.547 135.869C201.547 135.869 201.394 135.923 201.177 136.054C200.894 136.223 200.663 136.468 200.511 136.761C200.364 137.057 200.301 137.388 200.329 137.717C200.349 137.972 200.409 138.119 200.396 138.125C200.376 138.094 200.36 138.059 200.349 138.023C200.317 137.926 200.295 137.825 200.282 137.724C200.236 137.384 200.295 137.039 200.45 136.734C200.606 136.429 200.85 136.178 201.152 136.016C201.242 135.966 201.337 135.925 201.435 135.895C201.471 135.881 201.509 135.872 201.547 135.869Z" fill="#263238"/>
<path d="M199.542 137.95C199.093 138.263 198.591 138.491 198.061 138.626C198.061 138.607 198.395 138.479 198.803 138.307C199.211 138.135 199.533 137.934 199.542 137.95Z" fill="#263238"/>
<path d="M200.533 137.495C200.549 137.495 200.533 137.575 200.533 137.667C200.533 137.759 200.533 137.836 200.533 137.842C200.533 137.849 200.47 137.772 200.47 137.667C200.47 137.562 200.518 137.485 200.533 137.495Z" fill="#263238"/>
<path d="M200.697 136.86C200.713 136.86 200.697 136.933 200.678 137.01C200.659 137.086 200.611 137.143 200.595 137.137C200.579 137.131 200.595 137.064 200.615 136.987C200.634 136.911 200.678 136.853 200.697 136.86Z" fill="#263238"/>
<path d="M201.136 136.39C201.136 136.409 201.072 136.438 201.008 136.498C200.944 136.559 200.909 136.623 200.893 136.616C200.877 136.61 200.893 136.521 200.963 136.447C201.034 136.374 201.132 136.39 201.136 136.39Z" fill="#263238"/>
<path d="M201.471 136.131C201.471 136.131 201.471 136.182 201.433 136.217C201.395 136.253 201.359 136.272 201.347 136.259C201.334 136.246 201.347 136.208 201.385 136.173C201.423 136.137 201.459 136.118 201.471 136.131Z" fill="#263238"/>
<path d="M195.203 71.2679L194.273 59.8915L199.053 59.9776C199.053 59.9776 199.272 58.2982 198.568 54.6208C198.135 52.3646 196.634 50.9816 194.948 50.1594V50.1276L194.802 50.0893C193.414 49.4663 191.932 49.0796 190.417 48.9453L184.537 49.0122C184.537 49.0122 180.047 48.4386 177.571 51.654C176.615 52.8872 173.648 61.3287 173.648 61.3287L180.707 64.7257L180.047 60.0445C180.047 60.0445 180.181 63.4383 180.615 64.5058C180.854 65.1049 181.571 66.9659 181.571 66.9659L181.478 72.5808L195.203 71.2679Z" fill="#407BFF"/>
<path d="M191.961 58.2401L191.088 61.9558H199.319L198.777 55.7227L191.961 58.2401Z" fill="#407BFF"/>
<path d="M199.319 61.9553C198.959 61.8891 198.595 61.8528 198.229 61.847C197.554 61.8087 196.636 61.7737 195.591 61.7801C194.545 61.7864 193.625 61.831 192.949 61.882C192.584 61.8947 192.22 61.9395 191.862 62.0159C192.227 62.0449 192.594 62.0449 192.959 62.0159C193.631 61.9936 194.552 61.9681 195.591 61.9649C196.63 61.9617 197.55 61.9649 198.226 61.9808C198.591 62.0012 198.956 61.9927 199.319 61.9553Z" fill="#263238"/>
<path d="M191.605 55.6934C191.566 56.0105 191.557 56.3306 191.579 56.6494C191.579 57.2325 191.605 58.0356 191.64 58.9246C191.675 59.8137 191.717 60.6199 191.755 61.1999C191.756 61.5212 191.79 61.8415 191.857 62.1559C191.896 61.8388 191.904 61.5187 191.882 61.1999C191.882 60.6168 191.857 59.8105 191.822 58.9214C191.787 58.0324 191.745 57.2293 191.707 56.6462C191.706 56.3259 191.671 56.0066 191.605 55.6934Z" fill="#263238"/>
<g opacity="0.3">
<path d="M184.114 58.9121C184.114 58.9121 185.943 72.4777 191.087 72.1177C191.087 72.1177 193.403 72.0922 194.146 70.553V69.9475L184.114 58.9121Z" fill="black"/>
</g>
<g opacity="0.3">
<path d="M191.606 56.4941L190.621 63.1447L191.258 64.311L192.31 62.0294L191.864 62.0166L191.606 56.4941Z" fill="black"/>
</g>
<path d="M181.541 66.9724C181.48 66.8731 181.433 66.7659 181.401 66.6538C181.321 66.4466 181.216 66.1439 181.082 65.7647C180.763 64.7766 180.5 63.7712 180.295 62.7533C180.09 61.7348 179.96 60.7028 179.906 59.6654C179.887 59.2671 179.881 58.9452 179.887 58.7094C179.879 58.5942 179.886 58.4784 179.909 58.3652C179.935 58.3652 179.954 58.856 180.021 59.6399C180.111 60.6679 180.256 61.6902 180.457 62.7023C180.693 63.8877 180.977 64.9489 181.194 65.7105C181.295 66.0642 181.382 66.367 181.452 66.6155C181.495 66.7305 181.525 66.8503 181.541 66.9724Z" fill="#263238"/>
<path d="M183.62 70.8677C183.575 70.8677 183.448 70.5905 183.336 70.2304C183.24 70.0097 183.197 69.7695 183.212 69.5293C183.352 69.724 183.449 69.9469 183.495 70.1826C183.587 70.399 183.629 70.6329 183.62 70.8677Z" fill="#263238"/>
<path d="M184.329 70.8186C184.088 70.1793 184.078 69.476 184.3 68.8301C184.325 69.161 184.325 69.4934 184.3 69.8243C184.335 70.1545 184.345 70.4869 184.329 70.8186Z" fill="#263238"/>
<path d="M180.85 64.8812C180.828 64.9194 179.187 64.1419 177.183 63.1413C175.178 62.1407 173.569 61.293 173.588 61.2516C173.607 61.2101 175.252 61.9909 177.256 62.9915C179.26 63.9921 180.87 64.8398 180.85 64.8812Z" fill="#263238"/>
<path d="M183.743 50.1116C183.778 48.4991 183.788 46.8038 183.788 46.8038C183.788 46.8038 181.72 46.4055 181.36 43.6841C181.015 41.0901 181.978 35.0004 181.978 35.0004C184.999 33.8596 188.138 34.8952 190.206 37.3426L189.693 50.4302C189.632 51.9503 188.278 53.1102 186.653 53.0338C185.008 52.9541 183.708 51.6476 183.743 50.1116Z" fill="#B78876"/>
<path d="M181.819 39.8679C181.816 39.9572 181.847 40.0443 181.906 40.1112C181.966 40.1781 182.048 40.2199 182.137 40.228C182.182 40.2324 182.228 40.2275 182.271 40.2136C182.315 40.1998 182.355 40.1773 182.389 40.1474C182.423 40.1176 182.451 40.0811 182.471 40.0402C182.491 39.9993 182.502 39.9547 182.504 39.9093C182.506 39.8203 182.475 39.7337 182.416 39.6673C182.356 39.6009 182.274 39.5597 182.185 39.5524C182.14 39.5455 182.093 39.5486 182.049 39.5612C182.005 39.5739 181.964 39.596 181.929 39.626C181.894 39.656 181.867 39.6931 181.847 39.7348C181.828 39.7766 181.818 39.822 181.819 39.8679Z" fill="#263238"/>
<path d="M181.689 39.4105C181.731 39.4551 182.008 39.2671 182.375 39.2798C182.741 39.2926 183.012 39.4838 183.056 39.4392C183.101 39.3946 183.037 39.3372 182.919 39.2448C182.76 39.1292 182.568 39.0658 182.371 39.0632C182.177 39.0557 181.986 39.1117 181.826 39.2225C181.709 39.3085 181.667 39.3882 181.689 39.4105Z" fill="#263238"/>
<path d="M185.613 40.1023C185.609 40.1918 185.64 40.2793 185.7 40.3464C185.759 40.4135 185.842 40.4551 185.931 40.4624C185.977 40.4693 186.024 40.4662 186.068 40.4534C186.112 40.4405 186.153 40.4181 186.188 40.3878C186.223 40.3575 186.251 40.32 186.27 40.2778C186.289 40.2357 186.298 40.1899 186.298 40.1437C186.301 40.0545 186.27 39.9674 186.211 39.9008C186.151 39.8342 186.068 39.7934 185.979 39.7868C185.934 39.7799 185.887 39.7829 185.843 39.7956C185.799 39.8083 185.758 39.8304 185.723 39.8604C185.689 39.8903 185.661 39.9275 185.642 39.9692C185.622 40.011 185.613 40.0564 185.613 40.1023Z" fill="#263238"/>
<path d="M185.587 39.6466C185.629 39.6944 185.906 39.5064 186.273 39.5159C186.639 39.5255 186.91 39.7199 186.958 39.6753C187.006 39.6307 186.935 39.5733 186.818 39.4841C186.661 39.3654 186.469 39.3006 186.273 39.2992C186.078 39.2934 185.886 39.3492 185.725 39.4586C185.61 39.5446 185.568 39.6243 185.587 39.6466Z" fill="#263238"/>
<path d="M184.161 42.3836C183.966 42.3164 183.762 42.2746 183.556 42.2593C183.46 42.2593 183.371 42.2243 183.358 42.1606C183.351 42.0609 183.375 41.9615 183.429 41.8769L183.728 41.1599C184.007 40.5506 184.236 39.9197 184.413 39.2734C184.087 39.859 183.808 40.4695 183.578 41.0994C183.48 41.3511 183.381 41.5933 183.288 41.8228C183.226 41.9366 183.206 42.0684 183.231 42.1956C183.244 42.2302 183.264 42.2614 183.29 42.2868C183.317 42.3122 183.349 42.3312 183.384 42.3422C183.437 42.3575 183.491 42.3661 183.546 42.3677C183.75 42.399 183.957 42.4044 184.161 42.3836Z" fill="#263238"/>
<path d="M183.789 46.8021C185.064 46.8532 186.328 46.5498 187.441 45.9258C187.441 45.9258 186.514 47.7645 183.808 47.4426L183.789 46.8021Z" fill="#A36957"/>
<path d="M186.786 38.5599C186.71 38.6778 186.423 38.6268 186.104 38.5599C185.786 38.493 185.505 38.4388 185.467 38.3018C185.429 38.1647 185.763 37.9831 186.19 38.0691C186.617 38.1552 186.863 38.4579 186.786 38.5599Z" fill="#263238"/>
<path d="M183.067 38.0172C183.038 38.1543 182.732 38.2052 182.382 38.2212C182.031 38.2371 181.722 38.2212 181.681 38.081C181.639 37.9407 181.936 37.7432 182.359 37.7241C182.783 37.7049 183.095 37.8866 183.067 38.0172Z" fill="#263238"/>
<path d="M184.167 43.279C184.127 43.2695 184.084 43.2737 184.047 43.2911C184.009 43.3084 183.979 43.3378 183.96 43.3746C183.942 43.4071 183.932 43.4438 183.933 43.481C183.933 43.5182 183.943 43.5547 183.962 43.5868C183.981 43.6189 184.008 43.6455 184.04 43.664C184.072 43.6825 184.109 43.6922 184.146 43.6922C184.183 43.6922 184.22 43.6825 184.252 43.664C184.285 43.6455 184.311 43.6189 184.33 43.5868C184.349 43.5547 184.359 43.5182 184.36 43.481C184.36 43.4438 184.351 43.4071 184.333 43.3746C184.31 43.3318 184.273 43.2981 184.228 43.279C184.184 43.2599 184.134 43.2565 184.087 43.2695" fill="#A36957"/>
<path d="M184.254 43.3155C184.254 43.2996 184.194 43.2072 184.031 43.2422C183.983 43.2549 183.938 43.2801 183.902 43.3154C183.867 43.3506 183.841 43.3946 183.827 43.443C183.81 43.504 183.812 43.5687 183.832 43.6289C183.851 43.6891 183.889 43.742 183.939 43.7808C183.992 43.8171 184.055 43.8365 184.119 43.8365C184.183 43.8365 184.246 43.8171 184.299 43.7808C184.341 43.7523 184.375 43.7122 184.395 43.6653C184.415 43.6184 184.422 43.5667 184.414 43.5163C184.382 43.3474 184.257 43.3219 184.251 43.3442C184.245 43.3665 184.296 43.4239 184.286 43.5227C184.284 43.5471 184.276 43.5706 184.263 43.5912C184.249 43.6117 184.231 43.6287 184.21 43.6406C184.185 43.6548 184.157 43.6624 184.128 43.6624C184.1 43.6624 184.072 43.6548 184.047 43.6406C184.025 43.6217 184.008 43.5974 183.998 43.5701C183.988 43.5427 183.985 43.5132 183.99 43.4844C183.993 43.4593 184.003 43.4354 184.018 43.4148C184.033 43.3943 184.053 43.3777 184.076 43.3665C184.165 43.3124 184.245 43.3378 184.254 43.3155Z" fill="#263238"/>
<path d="M188.97 40.5379C188.651 41.2835 187.861 41.8603 187.969 42.6666C188.039 43.186 188.374 43.6703 188.31 44.193C188.227 44.8303 187.549 45.3019 187.45 45.9552C187.332 46.755 188.113 47.3764 188.422 48.1221C188.877 49.212 188.297 50.4356 188.281 51.6275C188.3 52.5323 188.646 53.3997 189.256 54.0688C189.865 54.738 190.696 55.1635 191.596 55.2666C192.322 55.3272 193.141 55.1073 193.508 54.4827C193.826 53.9665 193.756 53.31 193.941 52.7396C194.221 51.8856 195.034 51.261 195.216 50.3815C195.534 48.7881 193.59 47.4497 193.718 45.8182C193.772 45.1203 194.202 44.5148 194.384 43.8392C194.5 43.3953 194.508 42.9302 194.41 42.4821C194.311 42.034 194.108 41.6157 193.817 41.2612C193.336 40.6908 192.641 40.3052 192.223 39.6934C191.761 38.9891 191.745 38.1001 191.586 37.2683C191.372 36.2574 190.905 35.3172 190.229 34.5356C189.553 33.7541 188.69 33.1567 187.721 32.7992C186.751 32.4418 185.707 32.336 184.685 32.4917C183.664 32.6474 182.698 33.0596 181.879 33.6897C181.879 33.6897 181.417 35.7897 183.575 36.1434C185.732 36.4972 186.73 36.0893 186.972 36.9529C186.915 37.3086 186.943 37.6728 187.053 38.0157C187.164 38.3585 187.355 38.6703 187.609 38.9254C188.489 39.875 189.327 39.6711 188.97 40.5379Z" fill="#263238"/>
<path d="M192.396 55.1024C192.33 55.1047 192.264 55.0983 192.199 55.0833C192.012 55.0502 191.829 55 191.651 54.9335C190.993 54.6813 190.416 54.255 189.981 53.7003C189.676 53.3175 189.437 52.8868 189.274 52.4256C189.087 51.9004 188.989 51.3481 188.984 50.7909C188.977 50.1767 189.054 49.5646 189.213 48.9713C189.3 48.658 189.406 48.3504 189.532 48.0503C189.663 47.7517 189.779 47.4464 189.879 47.1358C189.967 46.8296 189.967 46.505 189.879 46.1989C189.786 45.8975 189.665 45.6052 189.519 45.3257C189.371 45.0486 189.247 44.7597 189.146 44.4621C189.048 44.1676 189.025 43.8533 189.079 43.5476C189.207 42.9485 189.57 42.5023 189.787 42.0467C189.993 41.6248 190.092 41.1584 190.073 40.6891C190.044 40.0024 189.795 39.3432 189.363 38.809C189.195 38.6219 189.015 38.4462 188.824 38.2832C189.048 38.4087 189.247 38.5727 189.414 38.7676C189.878 39.301 190.151 39.9736 190.191 40.6796C190.218 41.1693 190.121 41.6578 189.911 42.1008C189.691 42.5725 189.337 43.0218 189.229 43.5699C189.121 44.118 189.379 44.6948 189.662 45.2493C189.817 45.5368 189.943 45.8388 190.038 46.1511C190.132 46.4845 190.132 46.8374 190.038 47.1708C189.932 47.4923 189.81 47.8082 189.672 48.1173C189.547 48.4108 189.44 48.712 189.353 49.0191C189.195 49.5974 189.117 50.1946 189.121 50.7941C189.111 51.8151 189.44 52.8104 190.057 53.6238C190.47 54.1716 191.02 54.6013 191.651 54.8698C192.126 55.0546 192.4 55.0833 192.396 55.1024Z" fill="#455A64"/>
<path d="M192.078 39.0244C191.923 39.0647 191.764 39.0882 191.603 39.0946C191.166 39.1413 190.724 39.1295 190.29 39.0595C189.961 39.0108 189.645 38.8969 189.361 38.7245C189.076 38.5522 188.829 38.3248 188.633 38.0557C188.451 37.7153 188.306 37.3563 188.2 36.985C188.064 36.6141 187.808 36.299 187.473 36.0895C186.775 35.6466 185.956 35.5924 185.243 35.5064C184.584 35.4735 183.945 35.274 183.385 34.9264C183.01 34.6778 182.739 34.3002 182.623 33.8652C182.595 33.7473 182.588 33.6256 182.601 33.5051C182.601 33.4223 182.62 33.3809 182.626 33.3809C182.63 33.5387 182.65 33.6957 182.687 33.8493C182.819 34.256 183.09 34.6035 183.452 34.8308C184.002 35.1516 184.622 35.3312 185.259 35.3534C185.972 35.4363 186.82 35.4777 187.566 35.9493C187.931 36.1785 188.209 36.5227 188.356 36.9276C188.456 37.2895 188.594 37.6399 188.767 37.9728C189.138 38.482 189.694 38.8253 190.316 38.9288C190.736 39.0069 191.164 39.0358 191.591 39.0149C191.753 39.0058 191.916 39.0089 192.078 39.0244Z" fill="#455A64"/>
<path d="M191.286 36.4311C191.166 36.4713 191.039 36.4896 190.913 36.4853C190.319 36.4893 189.747 36.2605 189.32 35.848C189.125 35.6525 188.958 35.4304 188.826 35.1883C188.539 34.7039 188.262 34.108 187.666 33.8595C187.092 33.6669 186.48 33.6134 185.881 33.7033C185.376 33.7743 184.863 33.7743 184.358 33.7033C184.006 33.6546 183.675 33.5089 183.402 33.2827C183.331 33.2211 183.269 33.1504 183.217 33.0724C183.179 33.0171 183.163 32.9885 183.169 32.9863C183.169 32.9863 183.259 33.0883 183.443 33.2317C183.716 33.4255 184.032 33.5482 184.364 33.5886C184.86 33.6446 185.362 33.636 185.856 33.5631C186.481 33.461 187.121 33.5158 187.72 33.7224C188.028 33.8607 188.291 34.0813 188.482 34.3598C188.649 34.6082 188.804 34.8656 188.944 35.131C189.069 35.3626 189.225 35.5768 189.406 35.7683C189.566 35.9302 189.749 36.0667 189.951 36.173C190.247 36.3278 190.573 36.4179 190.907 36.4375C191.152 36.4343 191.283 36.4152 191.286 36.4311Z" fill="#455A64"/>
<path d="M193.345 54.4159C193.329 54.4159 193.431 54.2055 193.548 53.8104C193.708 53.2557 193.779 52.6792 193.759 52.1023C193.736 51.2484 193.503 50.4133 193.08 49.6709C192.847 49.2535 192.494 48.8806 192.204 48.4217C192.05 48.188 191.942 47.9275 191.885 47.6538C191.835 47.3657 191.859 47.0695 191.955 46.7934C192.134 46.2421 192.452 45.78 192.522 45.2733C192.592 44.7666 192.35 44.3173 192.108 43.8935C191.983 43.6873 191.869 43.4745 191.767 43.2562C191.674 43.0444 191.613 42.8199 191.585 42.5901C191.556 42.1852 191.568 41.7783 191.624 41.376C191.726 40.8074 191.673 40.2219 191.471 39.6807C191.381 39.4911 191.253 39.322 191.095 39.1836C191.095 39.1836 191.111 39.1836 191.133 39.2027C191.171 39.2215 191.205 39.2462 191.235 39.276C191.36 39.3798 191.461 39.5091 191.531 39.6552C191.762 40.201 191.834 40.8008 191.738 41.3856C191.694 41.7803 191.689 42.1784 191.723 42.5742C191.801 43.0194 191.977 43.4417 192.239 43.8106C192.375 44.026 192.491 44.2532 192.586 44.4894C192.686 44.7444 192.719 45.021 192.682 45.2924C192.605 45.8501 192.277 46.3217 192.111 46.8412C192.024 47.0918 192.001 47.3601 192.044 47.6219C192.1 47.8751 192.202 48.1159 192.344 48.3325C192.615 48.7755 192.981 49.1547 193.214 49.5912C193.641 50.3587 193.869 51.221 193.877 52.0992C193.887 52.687 193.796 53.2722 193.609 53.8295C193.558 53.9803 193.496 54.1273 193.424 54.2693C193.405 54.3217 193.378 54.371 193.345 54.4159Z" fill="#455A64"/>
<path d="M180.365 113.793C180.365 113.793 178.217 93.4494 178.093 85.9321C177.969 78.4148 181.474 70.9962 181.474 70.9962L195.202 70.4258C195.202 70.4258 197.917 78.0515 197.965 81.2604C198.061 87.4872 196.311 93.6343 196.512 98.5736L196.971 113.806" fill="#263238"/>
<path d="M197.434 88.7812C197.363 88.8434 197.287 88.9009 197.208 88.9533L197.084 89.0394L196.95 89.17C196.832 89.2721 196.725 89.3864 196.631 89.511C196.188 90.0527 195.866 91.0247 195.557 92.2324C195.399 92.9023 195.166 93.5523 194.863 94.1699C194.77 94.3391 194.664 94.5 194.544 94.6511C194.487 94.7276 194.432 94.8104 194.365 94.8837L194.155 95.094C193.854 95.3755 193.504 95.6001 193.123 95.7569C192.355 96.0946 191.485 96.254 190.694 96.6523C189.885 97.0879 189.259 97.8006 188.932 98.6599C188.543 99.5235 188.295 100.429 187.976 101.276C187.658 102.124 187.227 102.933 186.542 103.449C185.887 103.905 185.109 104.15 184.312 104.154C183.572 104.198 182.887 104.176 182.272 104.268C181.719 104.326 181.189 104.526 180.736 104.848C180.405 105.107 180.157 105.457 180.022 105.855C179.937 106.107 179.918 106.376 179.968 106.636C180.006 106.815 180.054 106.901 180.045 106.904C179.993 106.824 179.957 106.735 179.936 106.643C179.869 106.377 179.878 106.097 179.962 105.836C180.088 105.418 180.338 105.049 180.679 104.775C181.144 104.424 181.694 104.204 182.272 104.138C182.909 104.036 183.588 104.049 184.318 104.001C185.092 103.996 185.847 103.756 186.482 103.312C187.126 102.75 187.601 102.019 187.855 101.203C188.174 100.365 188.406 99.4566 188.811 98.5771C189.154 97.6824 189.808 96.9414 190.653 96.4898C191.475 96.0819 192.345 95.9258 193.094 95.6007C193.461 95.449 193.797 95.2331 194.088 94.9634L194.289 94.7626C194.353 94.6925 194.407 94.6129 194.464 94.5396C194.577 94.3947 194.676 94.24 194.761 94.0775C195.066 93.4684 195.302 92.8271 195.465 92.1655C195.784 90.9609 196.131 89.9763 196.599 89.4313C196.693 89.3072 196.799 89.1939 196.918 89.0935C196.969 89.0489 197.014 89.0043 197.058 88.9693L197.189 88.8864C197.268 88.8464 197.35 88.8113 197.434 88.7812Z" fill="#E6E6E6"/>
<path d="M197.516 79.3672C197.531 79.4567 197.537 79.5474 197.535 79.6381C197.534 79.9012 197.502 80.1632 197.439 80.4188C197.165 81.351 196.626 82.1834 195.888 82.8152C195.4 83.2632 194.866 83.6574 194.294 83.991C193.679 84.3543 193 84.7017 192.303 85.0968C191.569 85.4898 190.887 85.9703 190.269 86.5276C189.636 87.156 189.115 87.8877 188.727 88.6914C188.336 89.5059 187.89 90.2927 187.392 91.0463C187.139 91.3975 186.846 91.7183 186.519 92.0023C186.196 92.2764 185.842 92.5108 185.464 92.7002C184.779 93.0366 184.066 93.3107 183.332 93.5192C182.65 93.7295 182.013 93.9175 181.458 94.1565C180.955 94.3567 180.476 94.6133 180.031 94.9213C179.696 95.1538 179.394 95.4315 179.135 95.7467C178.918 96.0199 178.737 96.3198 178.597 96.6389C178.619 96.5506 178.649 96.4643 178.686 96.3808C178.79 96.1401 178.924 95.9132 179.084 95.7052C179.338 95.3768 179.639 95.0869 179.977 94.8448C180.424 94.5258 180.906 94.2586 181.414 94.0482C182.028 93.798 182.654 93.58 183.291 93.3949C184.014 93.1815 184.718 92.9064 185.394 92.5727C185.753 92.3856 186.089 92.159 186.398 91.8972C186.712 91.6172 186.994 91.3029 187.239 90.9603C187.73 90.2104 188.172 89.429 188.561 88.6213C188.961 87.7997 189.5 87.0536 190.155 86.4161C190.783 85.8504 191.479 85.3645 192.226 84.9694C192.927 84.5774 193.606 84.2364 194.221 83.8763C194.791 83.5539 195.325 83.1714 195.814 82.7355C196.546 82.1227 197.09 81.315 197.382 80.406C197.464 80.0656 197.509 79.7173 197.516 79.3672Z" fill="#E6E6E6"/>
<path d="M178.164 86.9972C178.152 86.9774 178.142 86.956 178.136 86.9334C178.112 86.872 178.092 86.8092 178.075 86.7454C178.021 86.4919 178.032 86.2287 178.107 85.9806C178.286 85.3433 178.99 84.5243 180.124 84.1196C180.691 83.9252 181.332 83.8009 182.001 83.6352C182.557 83.5431 183.083 83.3195 183.534 82.9831C183.986 82.6466 184.351 82.207 184.598 81.7009C184.78 81.3295 184.938 80.9475 185.073 80.5569C185.322 79.7087 185.661 78.8893 186.083 78.1127C186.567 77.3494 187.302 76.7782 188.161 76.4971C188.943 76.2435 189.74 76.0413 190.548 75.8916C191.269 75.7532 191.967 75.5151 192.622 75.1842C193.177 74.8671 193.656 74.4319 194.024 73.9095C194.569 73.1552 194.879 72.2576 194.917 71.3283C194.918 70.9873 194.896 70.6465 194.85 70.3086C194.946 70.6397 194.99 70.9837 194.98 71.3283C194.968 72.2777 194.668 73.2011 194.12 73.9764C193.747 74.5161 193.258 74.9657 192.689 75.2925C192.025 75.6358 191.316 75.8836 190.583 76.0287C189.782 76.1806 188.993 76.3839 188.218 76.6373C187.394 76.9075 186.688 77.4562 186.224 78.1892C185.808 78.9553 185.474 79.7627 185.226 80.5983C185.088 80.996 184.926 81.3845 184.739 81.7615C184.55 82.1236 184.309 82.4564 184.025 82.7493C183.465 83.2597 182.776 83.6069 182.033 83.7531C181.357 83.9252 180.72 84.0336 180.162 84.2184C179.057 84.5944 178.356 85.3688 178.168 85.987C178.09 86.2254 178.07 86.4785 178.107 86.7263C178.134 86.8147 178.153 86.9054 178.164 86.9972Z" fill="#E6E6E6"/>
<path d="M196.338 104.203C196.351 104.269 196.358 104.336 196.36 104.404C196.366 104.597 196.346 104.79 196.299 104.977C196.099 105.668 195.675 106.274 195.095 106.698C194.707 107.007 194.278 107.26 193.82 107.45C193.332 107.657 192.794 107.823 192.227 107.998C191.638 108.17 191.062 108.383 190.503 108.636C189.922 108.913 189.401 109.302 188.97 109.78C188.505 110.264 188.103 110.796 187.657 111.268C187.23 111.725 186.735 112.112 186.188 112.415C185.258 112.923 184.217 113.194 183.157 113.205C182.448 113.213 181.742 113.096 181.073 112.858C180.892 112.796 180.715 112.72 180.544 112.632C180.482 112.606 180.423 112.573 180.369 112.533C180.433 112.551 180.496 112.573 180.557 112.6C180.732 112.675 180.911 112.741 181.093 112.798C181.76 113.007 182.458 113.105 183.157 113.088C184.194 113.061 185.208 112.784 186.115 112.281C186.644 111.981 187.125 111.602 187.539 111.156C187.976 110.691 188.374 110.162 188.849 109.665C189.306 109.169 189.856 108.769 190.468 108.486C191.035 108.233 191.62 108.02 192.217 107.849C192.778 107.677 193.313 107.53 193.81 107.32C194.255 107.138 194.673 106.896 195.053 106.603C195.624 106.199 196.05 105.623 196.267 104.958C196.314 104.709 196.338 104.457 196.338 104.203Z" fill="#E6E6E6"/>
<path d="M194.771 61.9697L192.114 62.0334C192.011 62.5693 191.808 63.0808 191.515 63.5407C189.284 59.6848 187.573 54.5224 187.146 52.4479C187.209 52.2408 187.283 52.0113 187.375 51.7564C187.441 51.3692 187.429 50.9726 187.34 50.5901C187.264 50.128 187.136 49.5066 187.098 49.2198C186.98 48.3403 186.837 48.2033 186.531 48.3021C186.116 48.4391 186.703 50.7654 186.362 50.8163C186.177 50.8418 185.954 50.0452 185.89 49.3919C185.826 48.7386 185.527 46.7247 185.313 46.5908C184.995 46.3932 184.717 46.7055 184.8 47.3556C184.883 48.0057 184.982 49.9814 184.638 50.0101C184.294 50.0388 184 46.6992 184 46.6992C184 46.6992 184.055 45.9726 183.653 45.9885C182.933 46.0204 183.497 49.5385 183.558 49.8731C183.602 50.1025 183.239 50.1471 183.194 49.8954C183.15 49.6436 182.984 46.559 182.238 46.5844C181.671 46.5844 182.675 49.4811 182.356 50.1503C182.038 50.8195 181.821 47.8814 181.282 47.9197C181.082 47.9356 180.932 47.9738 181.301 49.6341C181.655 50.9532 182.081 52.2521 182.576 53.525C183.43 58.1297 187.178 72.8617 193.051 70.1658C196.339 68.6553 197.671 61.9697 197.671 61.9697H194.771Z" fill="#B78876"/>
<path d="M183.444 50.094C183.469 50.1003 183.495 50.1003 183.52 50.094C183.559 50.0822 183.592 50.0572 183.613 50.0233C183.635 49.9894 183.644 49.949 183.638 49.9092C183.638 49.7116 183.6 49.4248 183.555 49.0519C183.481 48.6026 183.432 48.1493 183.409 47.6944C183.409 47.4267 183.409 47.1399 183.425 46.8372C183.429 46.6833 183.445 46.5299 183.472 46.3783C183.498 46.2349 183.593 46.0597 183.705 46.0883H183.724C183.836 46.0883 183.925 46.1712 183.96 46.305C183.999 46.4437 184.014 46.5882 184.005 46.732C184.07 47.6245 184.184 48.5127 184.345 49.3929C184.371 49.5108 184.396 49.6319 184.435 49.753C184.452 49.815 184.473 49.8757 184.498 49.9346C184.515 49.9675 184.533 49.9994 184.553 50.0302C184.567 50.0535 184.586 50.0732 184.61 50.0875C184.633 50.1019 184.659 50.1107 184.686 50.1131C184.733 50.108 184.777 50.0892 184.813 50.0592C184.848 50.0291 184.874 49.9891 184.887 49.9442C184.915 49.8819 184.935 49.8167 184.948 49.7498C184.973 49.6214 184.99 49.4915 184.999 49.361C185.028 48.8301 185.02 48.2977 184.976 47.7677C184.936 47.5031 184.925 47.2348 184.945 46.9679C184.956 46.8525 185.012 46.7463 185.101 46.6715C185.121 46.6594 185.144 46.6517 185.168 46.6489C185.191 46.6462 185.215 46.6484 185.238 46.6556C185.265 46.6621 185.291 46.6728 185.314 46.6874C185.33 46.6995 185.343 46.7162 185.349 46.7352C185.45 46.9937 185.523 47.2617 185.569 47.5351C185.627 47.8155 185.674 48.1055 185.719 48.3955C185.764 48.6855 185.805 48.9786 185.84 49.275C185.867 49.5808 185.916 49.8843 185.987 50.1832C186.024 50.336 186.072 50.4861 186.13 50.6325C186.163 50.7145 186.208 50.7908 186.264 50.8588C186.285 50.887 186.314 50.9086 186.348 50.921C186.381 50.9334 186.417 50.9362 186.452 50.9289C186.484 50.9182 186.513 50.8994 186.536 50.8743C186.559 50.8492 186.575 50.8186 186.583 50.7855C186.62 50.6226 186.632 50.4549 186.618 50.2884C186.618 50.129 186.598 49.9697 186.583 49.8167C186.56 49.5491 186.535 49.2846 186.525 49.0233C186.517 48.8949 186.517 48.7661 186.525 48.6377C186.531 48.5808 186.545 48.5251 186.567 48.472C186.573 48.4544 186.583 48.4383 186.595 48.4242H186.637C186.847 48.3381 186.917 48.6313 186.974 48.8671C187.032 49.1029 187.054 49.3706 187.105 49.6224C187.188 50.1227 187.296 50.623 187.351 51.101C187.387 51.3299 187.379 51.5638 187.325 51.7893C187.249 52.0187 187.172 52.245 187.099 52.4712V52.4935V52.5127C187.472 54.0782 187.948 55.6175 188.523 57.1206C189.027 58.4813 189.533 59.6699 189.976 60.6259C190.419 61.5819 190.821 62.3308 191.095 62.8343L191.414 63.4047C191.448 63.4727 191.49 63.5368 191.538 63.5959C191.511 63.5251 191.478 63.4569 191.439 63.3919L191.12 62.8088C190.859 62.2957 190.483 61.5341 190.05 60.5781C189.616 59.6221 189.126 58.4335 188.635 57.0728C188.073 55.572 187.607 54.0372 187.239 52.4776V52.5222C187.312 52.2992 187.386 52.0729 187.462 51.8466C187.528 51.5983 187.541 51.3388 187.5 51.085C187.443 50.5847 187.338 50.1004 187.255 49.5969C187.207 49.3483 187.175 49.0934 187.124 48.8321C187.121 48.6978 187.098 48.5647 187.057 48.4369C187.021 48.3592 186.959 48.2962 186.882 48.2585C186.8 48.2317 186.712 48.2317 186.63 48.2585H186.579C186.552 48.2671 186.527 48.2812 186.506 48.2999C186.471 48.3299 186.443 48.3682 186.426 48.4114C186.397 48.4804 186.379 48.5535 186.372 48.6281C186.363 48.766 186.363 48.9045 186.372 49.0424C186.372 49.3101 186.41 49.5777 186.433 49.8454C186.433 50.0016 186.458 50.1641 186.465 50.3075C186.477 50.4512 186.47 50.596 186.442 50.7377C186.442 50.7696 186.417 50.7632 186.442 50.7791L186.423 50.76C186.383 50.7079 186.35 50.6499 186.328 50.5879C186.272 50.4501 186.226 50.3084 186.191 50.1641C186.121 49.8739 186.073 49.5788 186.047 49.2814C186.013 48.9818 185.972 48.6855 185.923 48.3923C185.878 48.0991 185.827 47.8123 185.77 47.5255C185.722 47.2336 185.641 46.9481 185.528 46.6747C185.506 46.629 185.472 46.5904 185.429 46.5632C185.392 46.5416 185.352 46.5245 185.311 46.5122C185.266 46.5002 185.218 46.4975 185.172 46.504C185.125 46.5106 185.081 46.5264 185.04 46.5504C184.974 46.5995 184.92 46.6617 184.879 46.7329C184.838 46.8042 184.813 46.8831 184.804 46.9647C184.784 47.1095 184.784 47.2565 184.804 47.4012C184.804 47.5383 184.836 47.6721 184.846 47.806C184.89 48.3274 184.9 48.8511 184.874 49.3738C184.867 49.498 184.851 49.6215 184.827 49.7434C184.818 49.8004 184.801 49.8561 184.779 49.9092C184.771 49.9302 184.759 49.9496 184.744 49.9665C184.744 49.9952 184.722 49.9665 184.725 50.0048C184.725 49.9729 184.725 50.0048 184.725 49.9633C184.711 49.9418 184.698 49.9195 184.686 49.8964C184.664 49.8454 184.645 49.7881 184.626 49.7339C184.591 49.6192 184.565 49.5013 184.54 49.3865C184.374 48.5139 184.253 47.6332 184.18 46.748C184.189 46.5878 184.171 46.4271 184.126 46.2732C184.105 46.1929 184.062 46.12 184.001 46.0628C183.97 46.0327 183.933 46.0093 183.893 45.9939C183.852 45.9786 183.809 45.9717 183.766 45.9736H183.785C183.731 45.9657 183.676 45.9739 183.626 45.9972C183.577 46.0204 183.536 46.0577 183.507 46.1043C183.46 46.1803 183.428 46.2647 183.412 46.3528C183.385 46.5108 183.37 46.6706 183.367 46.8308C183.367 47.1495 183.367 47.4267 183.367 47.6976C183.397 48.1554 183.456 48.6109 183.542 49.0615C183.597 49.4312 183.638 49.718 183.657 49.9123C183.663 49.9464 183.657 49.9815 183.641 50.0117C183.624 50.0419 183.597 50.0653 183.565 50.078C183.469 50.0876 183.44 50.0908 183.444 50.094Z" fill="#A36957"/>
<path d="M162.689 66.359C162.067 66.3457 161.446 66.4175 160.844 66.5725C159.196 67.0059 156.357 68.7267 156.239 70.8522H158.304C158.304 70.8522 157.147 73.3123 157.485 73.0828C158.368 72.4901 160.121 70.7088 160.121 70.7088L162.689 66.359Z" fill="#B78876"/>
<path d="M190.836 29.3179C190.789 29.3179 190.604 27.6162 190.419 25.4939C190.234 23.3716 190.119 21.6699 190.164 21.6699C190.209 21.6699 190.397 23.3716 190.581 25.4939C190.766 27.6162 190.881 29.3179 190.836 29.3179Z" fill="#263238"/>
<path d="M199.89 21.801C199.925 21.8265 198.532 23.85 196.777 26.3197C195.021 28.7894 193.564 30.781 193.526 30.7428C193.488 30.7046 194.884 28.6938 196.64 26.2241C198.395 23.7545 199.852 21.7755 199.89 21.801Z" fill="#263238"/>
<path d="M203.651 30.9712C203.651 31.0158 202.032 31.3887 200.018 31.8029C198.005 32.2172 196.36 32.5167 196.351 32.4721C196.341 32.4275 197.966 32.0547 199.983 31.6404C202.001 31.2261 203.629 30.9266 203.651 30.9712Z" fill="#263238"/>
<path d="M95.2818 74.7416L84.001 132.675L82.5352 140.259L157.74 139.896C161.118 139.88 164.114 136.882 165.194 132.427L178.533 77.7338C179.359 74.3528 177.549 70.8347 174.987 70.8379L98.8509 70.9176C97.1938 70.9144 95.7088 72.4822 95.2818 74.7416Z" fill="#407BFF"/>
<g opacity="0.5">
<path d="M95.2828 74.7416L84.002 132.675L82.5361 140.259L157.741 139.896C161.119 139.88 164.115 136.882 165.195 132.427L178.534 77.7338C179.36 74.3528 177.55 70.8347 174.988 70.8379L98.8519 70.9176C97.1948 70.9144 95.7098 72.4822 95.2828 74.7416Z" fill="black"/>
</g>
<path d="M150.536 128.742L142.569 64.559C142.25 61.93 140.15 59.967 137.674 59.9766L120.211 60.0308C119.562 60.0381 118.922 60.1775 118.328 60.4405C117.735 60.7034 117.202 61.0845 116.76 61.5604L108.475 70.3779L59.9102 70.6392C56.9434 70.6551 54.6617 73.4658 55.0537 76.6206L62.4499 135.94C62.7686 138.566 64.8686 140.526 67.3383 140.523L151.992 140.354C161.418 140.548 162.32 137.766 162.32 137.766C151.498 140.16 150.536 128.758 150.536 128.742Z" fill="#407BFF"/>
<g opacity="0.5">
<path d="M114.033 115.908L111.177 118.973L89.1895 99.1906L92.0447 96.125L114.033 115.908Z" fill="black"/>
<path d="M109.983 95.4453L113.137 98.2846L93.2429 119.651L90.085 116.812L109.983 95.4453Z" fill="black"/>
</g>
<path d="M162.621 33.073C162.518 33.0295 162.429 32.9576 162.366 32.8656C162.302 32.7736 162.266 32.6654 162.261 32.5535L162.134 29.5963C162.129 29.5044 162.146 29.4127 162.183 29.3285C162.22 29.2443 162.276 29.1699 162.347 29.1112C162.418 29.0524 162.501 29.011 162.591 28.9901C162.681 28.9692 162.774 28.9695 162.863 28.9908C163.11 29.0441 163.365 29.0464 163.613 28.9976C163.86 28.9488 164.096 28.85 164.304 28.7072C164.495 28.5859 164.66 28.4266 164.788 28.2392C164.916 28.0517 165.003 27.8401 165.046 27.6174C165.075 27.3918 165.058 27.1628 164.997 26.9439C164.936 26.7249 164.831 26.5205 164.689 26.3427C164.54 26.1405 164.352 25.9697 164.137 25.8401C163.921 25.7105 163.682 25.6246 163.434 25.5875C162.932 25.5596 162.436 25.7017 162.026 25.9909C161.615 26.2801 161.314 26.6993 161.171 27.1808C161.124 27.3267 161.022 27.4486 160.886 27.5211C160.751 27.5937 160.593 27.6112 160.445 27.5701C160.297 27.5291 160.171 27.4325 160.093 27.3006C160.014 27.1688 159.99 27.0117 160.024 26.8621C160.241 26.1048 160.712 25.4452 161.358 24.9943C162.004 24.5434 162.785 24.3286 163.571 24.3861C163.98 24.4406 164.373 24.5767 164.729 24.7864C165.084 24.996 165.394 25.275 165.639 25.6066C165.878 25.914 166.052 26.2661 166.152 26.6421C166.253 27.0182 166.276 27.4105 166.222 27.7958C166.15 28.1807 165.999 28.5466 165.78 28.871C165.561 29.1954 165.277 29.4716 164.947 29.6823C164.469 30.0042 163.911 30.1863 163.335 30.2081L163.434 32.4898C163.437 32.59 163.416 32.6896 163.371 32.7792C163.326 32.8689 163.259 32.9457 163.176 33.0026C163.094 33.0595 162.998 33.0946 162.898 33.1047C162.798 33.1147 162.698 33.0994 162.605 33.0602L162.621 33.073Z" fill="#407BFF"/>
<path d="M163.492 34.282C163.499 34.3782 163.477 34.4743 163.429 34.558C163.381 34.6417 163.31 34.7094 163.223 34.7524C163.137 34.7954 163.04 34.8118 162.944 34.7995C162.848 34.7873 162.759 34.7469 162.686 34.6835C162.613 34.6202 162.561 34.5366 162.536 34.4435C162.51 34.3504 162.513 34.2519 162.544 34.1605C162.575 34.0691 162.632 33.9888 162.708 33.9299C162.785 33.8709 162.877 33.836 162.973 33.8295C163.037 33.8247 163.101 33.8327 163.162 33.8529C163.223 33.8731 163.279 33.9052 163.327 33.9473C163.376 33.9894 163.415 34.0406 163.443 34.0981C163.472 34.1555 163.488 34.218 163.492 34.282Z" fill="#407BFF"/>
<path d="M152.382 28.9013C152.395 28.8383 152.405 28.7744 152.41 28.7101C152.41 28.5699 152.445 28.3914 152.471 28.1397C152.502 27.8306 152.554 27.524 152.627 27.2219C152.668 27.0435 152.691 26.8459 152.754 26.6451C152.818 26.4444 152.882 26.2277 152.952 26.0078C153.321 24.9184 153.859 23.8936 154.545 22.9709C155.445 21.7761 156.586 20.7838 157.894 20.0583C158.639 19.6385 159.432 19.3111 160.256 19.0832C161.145 18.8475 162.061 18.7276 162.98 18.7263C163.465 18.7185 163.949 18.7441 164.43 18.8028C164.676 18.8283 164.918 18.892 165.163 18.9334C165.411 18.9759 165.656 19.0355 165.896 19.1119C166.901 19.3926 167.856 19.8257 168.729 20.3961C170.67 21.6552 172.149 23.5121 172.942 25.686C173.369 26.8504 173.585 28.0817 173.579 29.3219C173.592 30.5996 173.366 31.8685 172.913 33.0631L172.77 33.4264L172.751 33.4742L172.77 33.522C173.57 35.3607 174.363 37.1675 175.112 38.917L175.246 38.764L170.466 36.9317L170.409 36.9094L170.361 36.954C169.096 38.1792 167.548 39.0725 165.855 39.5543C164.408 39.9527 162.893 40.0397 161.41 39.8095C159.926 39.5794 158.509 39.0373 157.251 38.2191C156.22 37.5433 155.312 36.6974 154.564 35.7176C153.481 34.2874 152.779 32.6052 152.525 30.8292C152.487 30.5106 152.455 30.2429 152.426 30.0007C152.397 29.7585 152.426 29.5609 152.41 29.3921C152.394 29.2232 152.41 29.1116 152.41 29.0192C152.426 29.0168 152.44 29.0085 152.451 28.9959C152.461 28.9833 152.465 28.9674 152.464 28.9514C152.463 28.9354 152.456 28.9204 152.444 28.9095C152.432 28.8985 152.417 28.8925 152.401 28.8925C152.385 28.8925 152.369 28.8985 152.357 28.9095C152.346 28.9204 152.338 28.9354 152.337 28.9514C152.336 28.9674 152.341 28.9833 152.351 28.9959C152.361 29.0085 152.375 29.0168 152.391 29.0192C152.391 29.1116 152.391 29.2359 152.391 29.3921C152.391 29.5482 152.391 29.7649 152.391 30.0071C152.391 30.2493 152.445 30.5265 152.477 30.842C152.582 31.6085 152.765 32.3623 153.022 33.0918C153.387 34.0551 153.878 34.9659 154.482 35.8004C155.232 36.7978 156.147 37.6599 157.187 38.3498C158.461 39.1884 159.898 39.7466 161.404 39.9872C162.91 40.2278 164.45 40.1455 165.922 39.7455C167.636 39.2588 169.203 38.3569 170.485 37.1197L170.38 37.142L175.16 38.9839L175.399 39.0763L175.294 38.831C174.535 37.0815 173.751 35.2778 172.955 33.4359V33.5283L173.101 33.1555C173.566 31.9348 173.798 30.6376 173.783 29.3315C173.793 28.0649 173.577 26.8067 173.146 25.6159C172.336 23.3986 170.824 21.5065 168.841 20.2272C167.946 19.6435 166.965 19.2027 165.934 18.9207C165.691 18.8435 165.441 18.7849 165.189 18.7454C164.94 18.7008 164.695 18.6371 164.446 18.6147C163.959 18.5542 163.468 18.5266 162.977 18.5319C162.043 18.5358 161.113 18.6623 160.211 18.9079C159.376 19.145 158.573 19.4809 157.818 19.9085C156.497 20.6518 155.349 21.6675 154.45 22.8881C153.765 23.826 153.235 24.8674 152.879 25.9728C152.812 26.2022 152.748 26.4221 152.691 26.6101C152.64 26.8022 152.6 26.9969 152.57 27.1933C152.501 27.4974 152.456 27.8064 152.436 28.1174C152.417 28.3628 152.404 28.5508 152.394 28.691C152.381 28.7602 152.377 28.8309 152.382 28.9013Z" fill="#263238"/>
</svg>
